{"title":"Planes 2013 CAM XViD UNiQUE","uid":8845656,"size":734447955,"categoryP":"video","categoryS":"movies","magnet":"?xt=urn:btih:bf3fcbcebc1cab330ee6e79c029e191850b7be88&amp;dn=Planes+2013+CAM+XViD+UNiQUE&amp;tr=udp%3A%2F%2Ftracker.openbittorrent.com%3A80&amp;tr=udp%3A%2F%2Fopen.demonii.com%3A1337&amp;tr=udp%3A%2F%2Ftracker.coppersurfer.tk%3A6969&amp;tr=udp%3A%2F%2Fexodus.desync.com%3A6969","seeders":20,"leechers":3,"uploader":"xxxlavalxxx","files":-1,"time":1377374461,"description":" &lt;a href=&quot;\nhttp://www.imdb.com/title/tt1691917/&quot; rel=&quot;nofollow&quot; target=&quot;_NEW&quot;&gt;\nhttp://www.imdb.com/title/tt1691917/&lt;/a&gt;\n\n\nDusty Crophopper is a little cropduster plane with a fear of heights and a crazy dream of being a racer. While his friends need convincing, Dusty gets the training he needs from Skipper, a veteran fighter, and qualifies for the Wings Across the World race. In the event, Dusty finds competitors who soon learn that there is something special about this underdog as he is tested to his physical and emotional limits. In doing so, Dusty soon finds enemies, and more importantly friends, who are inspired by his dream. In the face of all obstacles, the winner of this air race will be anyone's guess. \n\n\n\nDirector:\n Klay Hall \n\nWriters:\n Jeffrey M. Howard (screenplay), John Lasseter (story)\n\nStars:\n Carlos Alazraqui, Dane Cook, Stacy Keach \n\nGenres:\n  Animation |  Adventure |  Comedy |  Family \n\nCountry:\n USA \n\nLanguage:\n English | Spanish \n\n\n\n\nFormat                                   : AVI\n Format/Info                              : Audio Video Interleave\n File size                                : 696 MiB\n Duration                                 : 1h 22mn\n Overall bit rate                         : 1 174 Kbps\n Writing application                      : VirtualDubMod 1.5.10.2 (build 2540/release)\n Writing library                          : VirtualDubMod build 2540/release\n\n Video\n ID                                       : 0\n Format                                   : MPEG-4 Visual\n Format profile                           : Advanced Simple@L5\n Format settings, BVOP                    : 2\n Format settings, QPel                    : No\n Format settings, GMC                     : No warppoints\n Format settings, Matrix                  : Default (H.263)\n Muxing mode                              : Packed bitstream\n Codec ID                                 : XVID\n Codec ID/Hint                            : XviD\n Duration                                 : 1h 22mn\n Bit rate                                 : 1 040 Kbps\n Width                                    : 720 pixels\n Height                                   : 304 pixels\n Display aspect ratio                     : 2.35:1\n Frame rate                               : 16.639 fps\n Color space                              : YUV\n Chroma subsampling                       : 4:2:0\n Bit depth                                : 8 bits\n Scan type                                : Progressive\n Compression mode                         : Lossy\n Bits/(Pixel*Frame)                       : 0.286\n Stream size                              : 616 MiB (89%)\n Writing library                          : XviD 64\n\n Audio\n ID                                       : 1\n Format                                   : MPEG Audio\n Format version                           : Version 2\n Format profile                           : Layer 3\n Codec ID                                 : 55\n Codec ID/Hint                            : MP3\n Duration                                 : 1h 22mn\n Bit rate mode                            : Constant\n Bit rate                                 : 128 Kbps\n Channel(s)                               : 2 channels\n Sampling rate                            : 24.0 KHz\n Compression mode                         : Lossy\n Stream size                              : 75.7 MiB (11%)\n Alignment                                : Split accross interleaves\n Interleave, duration                     : 60 ms (1.00 video frame)\n Interleave, preload duration             : 500 ms\n Writing library                          : LAME3.99\n\nSource Used         LATiNO / BrYaNLaMeR              - Thanks :bow:\n\n\n\n\n &lt;a href=&quot;\nhttp://bayimg.com/daOaiAAep&quot; rel=&quot;nofollow&quot; target=&quot;_NEW&quot;&gt;\nhttp://bayimg.com/daOaiAAep&lt;/a&gt; &lt;a href=&quot;\nhttp://bayimg.com/DaOaOAAEp&quot; rel=&quot;nofollow&quot; target=&quot;_NEW&quot;&gt;\nhttp://bayimg.com/DaOaOAAEp&lt;/a&gt;","torrent":{"xt":"urn:btih:bf3fcbcebc1cab330ee6e79c029e191850b7be88","amp;dn":"Planes+2013+CAM+XViD+UNiQUE","amp;tr":["udp%3A%2F%2Ftracker.openbittorrent.com%3A80","udp%3A%2F%2Fopen.demonii.com%3A1337","udp%3A%2F%2Ftracker.coppersurfer.tk%3A6969","udp%3A%2F%2Fexodus.desync.com%3A6969"],"infoHash":"bf3fcbcebc1cab330ee6e79c029e191850b7be88","infoHashBuffer":{"type":"Buffer","data":[191,63,203,206,188,28,171,51,14,230,231,156,2,158,25,24,80,183,190,136]},"announce":[],"urlList":[]}}